<svg xmlns="http://www.w3.org/2000/svg" data-name="Layer 1" viewBox="0 0 29 32.9" fill="currentColor" aria-hidden="true" data-slot="icon">
  <g data-name="Image-/-BlockCATLogo">
    <path d="m0 24.8 14.5 8.1V18.8L0 10.7v14.1z" style="fill:#ccc"/>
    <path d="m0 10.7 14.5 8.1L29 10.7 14.5 2.6 0 10.7z" style="fill:#f2f2f2"/>
    <path d="M14.5 18.8v14.1L29 24.8V10.7l-14.5 8.1z" style="fill:#e6e6e6"/>
    <path d="m17.4 17.2-2.9 1.6-2.9-1.6h5.8z" style="fill:#686868"/>
    <path d="m14.5 21.7 2.9-4.5-2.9 1.6v2.9z" style="fill:#383838"/>
    <path d="m14.5 21.7-2.9-4.5 2.9 1.6v2.9z"/>
    <path d="M0 0v10.7l11.5 1.2L0 0zM29 0 19 10.3l10 .4V0z" style="fill:#f2f2f2"/>
    <path d="M26.8 5.3 24.2 8l2.6 1.5V5.3zM2.2 5.5l2.5 2.6-2.5 1.4v-4z" style="fill:#383838"/>
  </g>
</svg>
