<svg xmlns="http://www.w3.org/2000/svg" xmlns:xlink="http://www.w3.org/1999/xlink" xml:space="preserve" style="enable-background:new 0 0 100 100" viewBox="0 0 100 100" fill="currentColor" aria-hidden="true" data-slot="icon">
  <defs>
    <path id="a" d="M0 0h100v100H0z"/>
  </defs>
  <clipPath id="b">
    <use xlink:href="#a" style="overflow:visible"/>
  </clipPath>
  <g style="clip-path:url(#b)">
    <path d="M0 0h100v100H0z" style="fill:#181818"/>
    <path d="M79.7 34.5 62.3 19.6C61 18.5 59.4 18 57.8 18H24.9c-.9 0-1.8.2-2.6.5s-1.6.8-2.2 1.4c-.6.6-1.1 1.4-1.5 2.2-.3.8-.5 1.7-.5 2.6v35.8c0 1 .2 1.9.6 2.8.4.9 1 1.6 1.7 2.3l17.4 14.8c1.3 1.1 2.9 1.7 4.5 1.7h32.9c1.8 0 3.6-.7 4.9-2 1.3-1.3 2-3 2-4.7V39.5c0-1-.2-1.9-.6-2.8-.5-.8-1.1-1.6-1.8-2.2zM50 62.3c-2.5 0-4.9-.7-7-2.1-2.1-1.4-3.7-3.3-4.7-5.5s-1.2-4.7-.7-7.1c.5-2.4 1.7-4.6 3.5-6.3 1.8-1.7 4-2.9 6.5-3.4s5-.2 7.3.7c2.3.9 4.3 2.5 5.7 4.5 1.4 2 2.1 4.4 2.1 6.8 0 1.6-.3 3.2-1 4.7-.6 1.5-1.6 2.8-2.7 4-1.2 1.1-2.6 2-4.1 2.7-1.6.7-3.2 1-4.9 1z" style="fill:#54fe6d"/>
  </g>
</svg>
