<svg xmlns="http://www.w3.org/2000/svg" xml:space="preserve" style="enable-background:new 0 0 512 512" viewBox="0 0 512 512" fill="currentColor" aria-hidden="true" data-slot="icon">
  <circle cx="256" cy="256" r="256" style="fill:#140f26"/>
  <linearGradient id="a" x1="81.45" x2="436.075" y1="87.842" y2="300.35" gradientTransform="translate(0 88.583)" gradientUnits="userSpaceOnUse">
    <stop offset="0" style="stop-color:#e54033"/>
    <stop offset=".49" style="stop-color:#feca1a"/>
    <stop offset="1" style="stop-color:#afd803"/>
  </linearGradient>
  <path d="M240.6 154.1c13.8 7.1 28.9 9.5 43.4 9.5 8.4 7.7 15.4 16.8 22 26.1 2.7 3.9 5.2 8 7.4 12.2 5 9.7 8.7 19.9 12.5 30.3 1.1 3 2.2 6.1 3.3 9.1.4 1.3.7 2.6 1.1 3.9 5.8 19.8 14.2 40.9 25.5 58.4 3.7 5.7 7.9 11.2 12.5 16.2.9 1 1.8 1.9 2.8 2.9 4.3 4.5 8.7 9.1 11.2 14.8 3.1 7.1 2.8 15.3 1 22.8-8.7 35.5-42.9 44.8-75.6 45.7-12.2.2-24.4-.7-35.2-1.8 0 0-52-5.4-96.1-37.6l-1.4-1.1c-5.1-3.8-10.1-8-14.7-12.4-12.4-11.8-23.4-25.2-31.8-39.9l.2-.2c-1-1.8-1.9-3.6-2.9-5.4-8.1-16.3-13.1-34-13.3-52.8-.4-31.6 10.4-64 31-87.5v-.1c11.1-12.2 25-21.8 41.5-27.2 10.3-3.4 21.2-5.1 32-4.9 6.4 7.8 14.5 14.3 23.6 19zm-25.4 206.8c7.4-2.7 14.5-6.4 21.1-10.9-6.6 4.5-13.7 8.2-21.1 10.9z" style="fill-rule:evenodd;clip-rule:evenodd;fill:url(#a)"/>
  <linearGradient id="b" x1="54844.434" x2="32643.861" y1="56153.285" y2="33316.863" gradientTransform="translate(0 88.583)" gradientUnits="userSpaceOnUse">
    <stop offset=".15" style="stop-color:#6cbf00"/>
    <stop offset="1" style="stop-color:#afd803"/>
  </linearGradient>
  <path d="m348.5 128.3.5-.3c-58-98.9-133.8-21-133.8-21l.1.2c43.6 76.5 126.4 25.5 133.2 21.1z" style="fill-rule:evenodd;clip-rule:evenodd;fill:url(#b)"/>
  <linearGradient id="c" x1="139.604" x2="361.815" y1="280.663" y2="226.633" gradientTransform="translate(0 88.583)" gradientUnits="userSpaceOnUse">
    <stop offset=".21" style="stop-color:#e54033"/>
    <stop offset=".84" style="stop-color:#feca1a"/>
  </linearGradient>
  <path d="M276.6 298.7c-16 38.2-46.7 63.5-83.8 67.3-.8.1-11 .9-16.6.5 44.1 32.2 96.1 37.6 96.1 37.6 11.1 1.1 23.7 2.1 36.4 1.7 4.5-11.6 7-24.9 6.2-40.1-1.7-35.1 18.7-53.1 40.7-62.4-11.3-17.5-19.7-38.6-25.5-58.4-17.1 4.8-39 19.2-53.5 53.8z" style="fill:url(#c)"/>
  <linearGradient id="d" x1="314.674" x2="383.24" y1="265.669" y2="266.182" gradientTransform="translate(0 88.583)" gradientUnits="userSpaceOnUse">
    <stop offset="0" style="stop-color:#feca1a"/>
    <stop offset=".4" style="stop-color:#feca1a"/>
    <stop offset="1" style="stop-color:#afd803"/>
  </linearGradient>
  <path d="M314.3 365.6c.7 15.1-2.3 28.7-6.8 40.4 32.7-.9 66.8-10.2 75.6-45.7 1.8-7.5 2.1-15.7-1-22.8-3-6.9-8.8-12.2-13.9-17.7-4.8-5.3-9.1-11-13-17-22.1 9.2-42.6 27.7-40.9 62.8z" style="fill:url(#d)"/>
  <linearGradient id="e" x1="159.48" x2="300.055" y1="282.048" y2="91.734" gradientTransform="translate(0 88.583)" gradientUnits="userSpaceOnUse">
    <stop offset=".16" style="stop-color:#e54033"/>
    <stop offset=".84" style="stop-color:#feca1a"/>
  </linearGradient>
  <path d="M329 241.2c-5-13.4-9.3-26.9-15.8-39.4-2.2-4.2-4.6-8.3-7.4-12.2-6.6-9.3-13.6-18.4-22-26.1-14.5 0-29.6-2.4-43.4-9.5-14 19.8-30 53.5-15.3 91.9 21.6 56.7-22.3 95.5-50.4 119.5l1.4 1.1c5.3.4 10.6.3 15.9-.2 37.2-3.8 69.6-29.7 85.6-67.9 14.5-34.7 35.6-47.8 52.7-52.4-.4-1.6-.8-3.2-1.3-4.8z" style="fill:url(#e)"/>
  <linearGradient id="f" x1="139.001" x2="132.776" y1="92.942" y2="215.866" gradientTransform="translate(0 88.583)" gradientUnits="userSpaceOnUse">
    <stop offset="0" style="stop-color:#feca1a"/>
    <stop offset=".76" style="stop-color:#e54033"/>
  </linearGradient>
  <path d="M144.8 165.7c-21.5 23.6-32.9 56.8-32.5 89.1.2 18.8 5.2 36.6 13.3 52.8 1.2 2.4 2.5 4.9 3.9 7.2 45.3-45.4 28.9-113.1 15.3-149.1z" style="fill:url(#f)"/>
  <linearGradient id="g" x1="207.769" x2="170.225" y1="61.022" y2="203.584" gradientTransform="translate(0 88.583)" gradientUnits="userSpaceOnUse">
    <stop offset=".16" style="stop-color:#feca1a"/>
    <stop offset="1" style="stop-color:#e54033"/>
  </linearGradient>
  <path d="M226 246c-14.6-38.4 1-71.9 15-91.7-9.2-4.7-17.4-11.2-24.1-19.1-10.9-.2-21.7 1.4-32 4.9-16.5 5.5-30.4 15-41.5 27.2 13.3 35.3 29.3 101.5-15 146 8.4 14.7 19.4 28.1 31.8 39.9 4.9 4.6 10 9 15.5 13 28-24.1 71.9-63.5 50.3-120.2z" style="fill:url(#g)"/>
  <linearGradient id="h" x1="222.313" x2="361.321" y1="-7.236" y2="44.002" gradientTransform="translate(0 88.583)" gradientUnits="userSpaceOnUse">
    <stop offset=".15" style="stop-color:#6cbf00"/>
    <stop offset="1" style="stop-color:#afd803"/>
  </linearGradient>
  <path d="M280.6 113.3c30.7 12.1 52.1 15.4 67.7 14.9l.4-.3c-58-98.9-133.8-21-133.8-21l.1.2c16.4-2.9 40.2-3.8 65.6 6.2z" style="fill:url(#h)"/>
  <linearGradient id="i" x1="54842.355" x2="32641.781" y1="56154.824" y2="33318.402" gradientTransform="translate(0 88.583)" gradientUnits="userSpaceOnUse">
    <stop offset=".15" style="stop-color:#6cbf00"/>
    <stop offset="1" style="stop-color:#afd803"/>
  </linearGradient>
  <path d="M281 112.6c-25.4-10-49.3-9.6-66-5.5 43.6 76.5 126.5 25.5 133.3 21.1-15.6.5-36.7-3.5-67.3-15.6z" style="fill:url(#i)"/>
</svg>
