<svg xmlns="http://www.w3.org/2000/svg" data-name="Layer 1" viewBox="0 0 93.98 73.22" fill="currentColor" aria-hidden="true" data-slot="icon">
  <path d="m36.46 30.4 10.53 22.96 15.64-8.89h.03V26.68l-26.2 3.72z" style="fill:#2bbdf7"/>
  <path d="M82.86 13.34 73.1 9.73l-10.44-.84v55.43l15.66 8.9 12.49-25.06-7.92-24.11-.03-10.71z" data-name="Path" style="fill:#2891f9"/>
  <path d="m81.95 8.89-3.63 8.9v55.29l15.66-8.9V8.89H81.95z" data-name="Path" style="fill:#2bbdf7"/>
  <path d="M78.32 0 62.66 8.89l15.66 8.9 15.66-8.9L78.32 0z" data-name="Path" style="fill:#2b6def"/>
  <path d="M46.99 35.57 31.33 18.29 0 8.89v55.29l15.66 8.9 4.49-30.6 11.18 1.99 15.66 8.89V35.57z" data-name="Path" style="fill:#2891f9"/>
  <path d="M15.66 0 0 8.89l46.99 26.68 7.1-4.02 8.57-4.87L15.66 0z" data-name="Path" style="fill:#2b6def"/>
  <path d="M15.66 35.57v37.51l15.67-8.9V44.47l-15.67-8.9z" data-name="Path" style="fill:#2bbdf7"/>
</svg>
