<svg xmlns="http://www.w3.org/2000/svg" xml:space="preserve" id="Layer_1" x="0" y="0" style="enable-background:new 0 0 2340 2500.6" version="1.1" viewBox="0 0 2340 2500.6" fill="currentColor" aria-hidden="true" data-slot="icon">
  <style>
    .st1{fill-rule:evenodd;clip-rule:evenodd;fill:#fff}
  </style>
  <path d="m1307 36.3 885 483c93 51 146 147 147 247h1v969c0 115-69 215-169 258l-866 473c-88 48-190 44-272-2l-885-483c-93-51-146-147-147-247H0v-969c0-115 69-215 169-258l866-473c88-48 190-44 272 2z" style="fill:#22aea5"/>
  <path d="M752 773.3c95 0 172 77 172 172v610c0 95-77 172-172 172s-172-77-172-172v-610c0-95 77-172 172-172zM1588 773.3c95 0 172 77 172 172v610c0 95-77 172-172 172s-172-77-172-172v-610c0-95 77-172 172-172zM1170 1230.3c-95 0-172-77-172-172s77-172 172-172 172 77 172 172-77 172-172 172z" class="st1"/>
</svg>
