<svg xmlns="http://www.w3.org/2000/svg" xml:space="preserve" style="enable-background:new 0 0 2500 2500" viewBox="0 0 2500 2500" fill="currentColor" aria-hidden="true" data-slot="icon">
  <path d="M0 0h2500v2500H0z" style="fill:none"/>
  <path d="M213 0h1010c675 0 1224 561 1224 1250s-549 1250-1224 1250H213c-89 0-161-74-161-165V164C52 73 124-1 213-1v1zm438 773 674 423 276-173c27-17 58-29 89-34L847 459c-86-54-200-28-254 59s-28 201 59 255h-1zm-87 9c15 17 33 32 53 45l315 198v826c0 102-83 185-184 185-102 0-184-83-184-185V781v1zm1070 295c86-54 200-28 254 59s28 201-59 255l-843 530c6-22 10-45 10-69v-374l638-401z" style="fill-rule:evenodd;clip-rule:evenodd;fill:#01d4c9"/>
</svg>
