<svg xmlns="http://www.w3.org/2000/svg" xml:space="preserve" id="Layer_1" x="0" y="0" version="1.1" viewBox="0 0 390 390" fill="currentColor" aria-hidden="true" data-slot="icon">
  <style id="style1" type="text/css">
    .st1{fill:#fff}
  </style>
  <circle id="circle1" cx="195" cy="195" r="195" style="fill:#4b5cf0"/>
  <path id="path1" d="M290.3 99.1v191.2h-41.2v-99.9h-33.9c-4 0-7.8 1.5-10.7 4.1-1.7 1.5-2.9 3.3-3.8 5.4-.9 2.1-1.4 4.2-1.4 6.5v23c0 6.1-5 11.3-11.3 11.3h-27.2c-6.1 0-11.3-5-11.3-11.3v-27.8c0-6.1 5-11.3 11.3-11.3h24.6c3.3 0 6.5-1.1 8.9-3.3 1.5-1.3 2.8-2.9 3.7-4.9.9-1.8 1.3-3.8 1.3-5.9v-36.1H99.9V99Z" class="st1"/>
  <path id="path2" d="M149.5 265.6v.4c0 13.8-11.1 24.9-24.9 24.9-13.8 0-24.8-11.1-24.8-24.9v-.4c0-13.8 11.1-24.9 24.9-24.9 6.9 0 13.1 2.8 17.6 7.3 4.5 4.6 7.1 10.7 7.2 17.6z" class="st1"/>
</svg>
