<svg xmlns="http://www.w3.org/2000/svg" xml:space="preserve" id="Layer_1" x="0" y="0" style="enable-background:new 0 0 563.9 512" version="1.1" viewBox="0 0 563.9 512" fill="currentColor" aria-hidden="true" data-slot="icon">
  <style>
    .st1{fill:#bcbec0}.st2{fill:#fff}.st3{fill:#ed1c24}.st4{fill:#be1e2d}.st5{fill:#231f20}
  </style>
  <g id="Layer_2_1_">
    <g id="Layer_1-2">
      <path d="M18.6 0h512v512h-512z" style="fill:#fff;fill-opacity:0"/>
      <path d="M464.5 241.9h33.1V275h-33.1z" class="st1"/>
      <path d="M364.9 308.1H199.1v99.4h33.1v33.1H398.1V308.1z" class="st2"/>
      <path d="M364.9 275h-66.4v-33.1h-33.1V275H165.9v165.6H232.2v-33.1h-33.1v-99.4h199V275z" class="st1"/>
      <path d="M265.4 473.7h66.4v-33.1H232.2v33.1z" class="st1"/>
      <path d="M497.5 208.8v-33.1h-33v33.1h-33.3v33.1h99.6v-33.1zM331.8 76.4v33.1h33.1v33.1h33.2V76.4h-33.2zM298.5 175.7h-33.1v33.1h-33.2v33.1H331.8v-33.1h-33.3zM232.2 43.4h33.2v33h-33.2zM232.2 109.5h-33.1V76.4h-33.2v33.1h-33.2v33.1h33.2v33.1h33.2v-33.1h33.1z" class="st2"/>
      <path d="M497.5 175.7h33.2v33.1h-33.2z" class="st3"/>
      <path d="M464.5 142.6v-33.1h-66.4v33.1h-33.2v-33.1h-33.1V43.4h-66.4v33H199.1v33.1h33.1v33.1h-33.1v33.1h-33.2v-33.1h-33.2v-33.1H99.6v66.2h33.1v33.1h33.2v33.1H232.2v-33.1h33.2v-33.1h33.1v33.1h33.3v33.1h99.4v-33.1h33.3v-33.1h33v-33.1z" class="st3"/>
      <path d="M66.3 241.9h33.2V275H66.3zM33.2 208.8h33.1v33.1H33.2z" class="st1"/>
      <path d="M431.2 241.9H298.5V275h166v-33.1zM199.1 241.9h-33.2v-33.1h-33.2v-33.1H99.6v-33.1H66.3v33.1H33.2v33.1h33.1v33.1h33.3V275h165.8v-33.1h-33.2z" class="st4"/>
      <path d="M530.8 175.7v66.2h33.1v-66.2zM497.5 241.9h33.2V275h-33.2zM497.5 142.6h33.2v33.1h-33.2zM464.5 109.5h33.1v33.1h-33.1zM431.2 275h-33.1v165.6h33.1V308.1h66.3V275h-33zM431.2 109.5h33.3V76.4h-66.4v33.1zM331.8 440.6v33.1H398.1v-33.1h-33.2zM364.9 76.4h33.2v-33H331.8v33zM265.4 473.7h-33.2v33.1H331.8v-33.1h-33.3zM298.5 43.4h33.3V10.3H232.2v33.1h33.2zM199.1 440.6h-33.2v33.1H232.2v-33.1zM232.2 76.4v-33H165.9v33h33.2zM165.9 374.4V275H66.3v33.1h66.4v132.5h33.2v-33.1zM165.9 109.5V76.4H99.6v33.1h33.1zM66.3 109.5h33.2v33.1H66.3zM33.2 241.9h33.1V275H33.2zM33.2 142.6h33.1v33.1H33.2zM33.2 175.7H0v66.2h33.2v-33.1zM217 307v33.2h33.1V273.9H217zM318.5 273.9V340.2h33.1V273.9z" class="st5"/>
    </g>
  </g>
</svg>
