<svg xmlns="http://www.w3.org/2000/svg" xml:space="preserve" id="Layer_1" x="0" y="0" style="enable-background:new 0 0 23 23" version="1.1" viewBox="0 0 23 23" fill="currentColor" aria-hidden="true" data-slot="icon">
  <style>
    .st0{fill:#005aff}
  </style>
  <path d="m18.86 11.54-7.4 7.4.5.5c2.2 2.4 5.2 3.6 8.4 3.6.8 0 1.6-.1 2.4-.3.2-.8.3-1.6.3-2.4 0-3.2-1.3-6.2-3.6-8.4l-.6-.4zm-7.8-7.9c-2.2-2.4-5.2-3.6-8.4-3.6-.8 0-1.6.1-2.4.3-.2.8-.3 1.6-.3 2.4 0 3.2 1.3 6.2 3.6 8.4l.5.5 7.4-7.4-.4-.6z" class="st0"/>
  <path d="M19.36 11.04c2.4-2.2 3.6-5.2 3.6-8.4 0-.8-.1-1.6-.3-2.4-.8-.2-1.6-.3-2.4-.3-3.2 0-6.2 1.3-8.4 3.6l-.5.5 7.4 7.4.6-.4zm-15.7.9c-2.4 2.2-3.6 5.2-3.6 8.4 0 .8.1 1.6.3 2.4.8.2 1.6.3 2.4.3 3.2 0 6.2-1.3 8.4-3.6l.5-.5-7.4-7.4-.6.4z" class="st0"/>
  <path d="m132.4 136 7.4-7.4 7.4 7.4-7.4 7.4-7.4-7.4z" style="fill:#00f" transform="translate(-128.24 -124.46)"/>
</svg>
