<svg xmlns="http://www.w3.org/2000/svg" version="1.0" viewBox="0 0 810 810" fill="currentColor" aria-hidden="true" data-slot="icon">
  <defs>
    <clipPath id="a">
      <path d="M311 437h262v287.727H311Zm0 0"/>
    </clipPath>
  </defs>
  <path d="M-81-81h972v972H-81z"/>
  <path d="M-81-81h972v972H-81z"/>
  <path d="M-81-81h972v972H-81z"/>
  <g clip-path="url(#a)">
    <path d="m311.324 527.238 80.863 197.047 179.946-183.488h-136.45L399.25 437.539Zm0 0"/>
  </g>
  <path d="M529.934 304.379 426.762 409.496l33.832 95.828H732L661.176 304.38ZM81 304.379l70.824 200.945h131.242l102.985-104.93-33.832-96.015Zm0 0"/>
  <path d="M420.813 85.414 240.867 268.906h136.45l36.433 103.258 87.926-89.516Zm0 0"/>
</svg>
