<svg xmlns="http://www.w3.org/2000/svg" xml:space="preserve" id="Layer_1" x="0" y="0" style="enable-background:new 0 0 854 854" version="1.1" viewBox="0 0 854 854" fill="currentColor" aria-hidden="true" data-slot="icon">
  <style>
    .st0{fill:#3ef2d0}
  </style>
  <path d="M797.1 0v170.8h-56.9V0h-56.9v170.8h-56.9V0h-56.9v170.8H284.7V0h-56.9V227.7h569.3v56.9H170.8V0h-56.9v284.7h-57V0H0v626.3h56.9V455.5h56.9v170.8h56.9V455.5h56.9v170.8h56.9V455.5h284.7v170.8h56.9V398.6H56.9v-56.9H683.1v284.7H740V341.6h56.9v284.7H854V0h-56.9zM97.6 764.5V797H24.4v-32.5H0V854h24.4v-32.5h73.2V854H122v-89.5H97.6zM561.2 821.5h-24.4V854h24.4v-32.5zM561.2 764.5h-24.4V797h-73.2v-32.5h-24.4V854h24.4v-32.5h73.2l24.4-24.4v-32.6zM252.1 764.5H146.4V854h24.4v-32.5H244V854h24.4v-89.5h-16.3zm-81.3 32.6V789H244v8.1h-73.2zM414.8 788.9v-24.4H292.8V854h122v-24.4h-97.6v-40.7h97.6zM707.6 788.9v-24.4H585.6V854h122v-24.4H610v-8.1h97.6v-24.4H610V789h97.6zM829.6 764.5v56.9l-73.2-56.9H732V854h24.4v-56.9l73.2 56.9H854v-89.5h-24.4z" class="st0"/>
</svg>
