<svg xmlns="http://www.w3.org/2000/svg" xml:space="preserve" style="enable-background:new 0 0 60 60" viewBox="0 0 60 60" fill="currentColor" aria-hidden="true" data-slot="icon">
  <circle cx="30" cy="30" r="30" style="fill:#3ceaaa"/>
  <path d="M22.6 15.9c1.8-1.8 4.7-1.8 6.5 0l4.9 4.8.8-.8c1.8-1.8 4.7-1.8 6.5 0l4.8 4.7c1.9 1.8 1.9 4.8 0 6.7l-13 12.8c-1.8 1.8-4.7 1.8-6.5 0l-13-12.8c-1.9-1.8-1.9-4.8 0-6.7l9-8.7zm8.2 8.1L26 19.3 17 28l4.8 4.7 9-8.7zm-5.6 12 4.8 4.7 4.8-4.7-4.8-4.7-4.8 4.7zm8.1-8 4.8 4.7L43 28l-4.8-4.7-4.9 4.7z" style="fill-rule:evenodd;clip-rule:evenodd;fill-opacity:.6"/>
</svg>
