<svg xmlns="http://www.w3.org/2000/svg" xml:space="preserve" style="enable-background:new 0 0 512 512" viewBox="0 0 512 512" fill="currentColor" aria-hidden="true" data-slot="icon">
  <circle cx="256" cy="256" r="256" style="fill:#6763fb"/>
  <path d="M256.5 48.4c110.4-1.6 207.7 90.8 207.3 207.3-.3 115.6-92.4 207.4-208.1 207.9-113.5.5-213.6-95.9-207.3-219.3C53.7 141.2 141.7 47 256.5 48.4zm-17.4 153.3c.3-1 .6-2 1-3h12.7c27.4 0 54.8-.2 82.2.1 11.7.1 14.6-6.1 14.4-16.4-.2-16.1-1.9-19.5-13.2-19.6-45.8-.2-91.6-.4-137.4.1-17.4.2-30.3 8.4-33 21.1-2.1 9.8-2.9 20.2-2.4 30.2.7 13.3 9.6 21.8 22.9 22 33.5.5 67.1.2 104 .2-18.8-12.8-35-23.7-51.2-34.7zm34.3 108.5c-.3.8-.5 1.6-.8 2.3-3.7.2-7.4.6-11.1.6-27.8 0-55.6 0-83.4.1-13 0-15.1 2.6-15.1 17.6 0 15.3 2.2 18.3 14.5 18.3 44.6.1 89.3.3 133.9-.2 7.1-.1 14.7-2.1 21.3-5.1 16.7-7.5 19.1-29 15.5-49.8-1.9-10.9-9.8-17.7-20.3-18-34.2-.7-68.4-.3-105.7-.3 18.7 12.7 35 23.6 51.2 34.5z"/>
</svg>
