<svg xmlns="http://www.w3.org/2000/svg" viewBox="0 0 45.674 50.074" fill="currentColor" aria-hidden="true" data-slot="icon">
  <defs>
    <linearGradient id="a" x1="13.915" x2="26.825" y1="81.21" y2="81.21" gradientTransform="matrix(1.40584 0 0 .57037 -5.813 -3.607)" gradientUnits="userSpaceOnUse">
      <stop offset="0" style="stop-color:#ef4136;stop-opacity:1"/>
      <stop offset="1" style="stop-color:#fbb040;stop-opacity:1"/>
    </linearGradient>
    <linearGradient id="b" x1="5.912" x2="25.174" y1="37.5" y2="37.5" gradientTransform="matrix(.98516 0 0 .81392 -5.813 -3.607)" gradientUnits="userSpaceOnUse">
      <stop offset="0" style="stop-color:#ef4136;stop-opacity:1"/>
      <stop offset="1" style="stop-color:#fbb040;stop-opacity:1"/>
    </linearGradient>
    <linearGradient id="c" x1="8.557" x2="52.049" y1="13.566" y2="13.566" gradientTransform="matrix(.98923 0 0 .81058 -5.813 -3.607)" gradientUnits="userSpaceOnUse">
      <stop offset="0" style="stop-color:#ef4136;stop-opacity:1"/>
      <stop offset="1" style="stop-color:#fbb040;stop-opacity:1"/>
    </linearGradient>
    <linearGradient id="d" x1="7.907" x2="22.3" y1="10.19" y2="10.19" gradientTransform="matrix(.73513 0 0 1.09076 -5.813 -3.607)" gradientUnits="userSpaceOnUse">
      <stop offset="0" style="stop-color:#ef4136;stop-opacity:1"/>
      <stop offset="1" style="stop-color:#fbb040;stop-opacity:1"/>
    </linearGradient>
    <linearGradient id="e" x1="14.119" x2="33.978" y1="4.994" y2="4.994" gradientTransform="matrix(1.11038 0 0 .72213 -5.813 -3.607)" gradientUnits="userSpaceOnUse">
      <stop offset="0" style="stop-color:#ef4136;stop-opacity:1"/>
      <stop offset="1" style="stop-color:#fbb040;stop-opacity:1"/>
    </linearGradient>
    <linearGradient id="f" x1="55.598" x2="69.96" y1="10.221" y2="10.221" gradientTransform="matrix(.7356 0 0 1.09004 -5.813 -3.607)" gradientUnits="userSpaceOnUse">
      <stop offset="0" style="stop-color:#ef4136;stop-opacity:1"/>
      <stop offset="1" style="stop-color:#fbb040;stop-opacity:1"/>
    </linearGradient>
  </defs>
  <path d="M19.085 49.233c.36.168.73.317 1.11.438l.163.055c.36.109.727.195 1.102.257h.168a7.556 7.556 0 0 0 2.336 0h.18c.367-.058.73-.14 1.085-.25l.204-.062c.359-.113.714-.254 1.058-.41l.153-.074c.347-.168.683-.356 1.011-.563l.078-.047c.344-.219.676-.46.996-.715l.188-.152c.309-.258.61-.535.895-.832l.195-.2c.297-.304.594-.624.898-.964l.125-.16c.27-.332.528-.672.778-1.032l.09-.125a33.77 33.77 0 0 1-8.489-1.593 1.91 1.91 0 0 0-1.164 0 33.646 33.646 0 0 1-8.496 1.61 14.08 14.08 0 0 0 5.336 4.82zm0 0" style="fill:url(#a);fill-rule:nonzero;stroke:none"/>
  <path d="M.015 34.007c.035.379.09.758.172 1.129l.042.207c.086.36.192.719.325 1.066l.07.168a7.636 7.636 0 0 0 1.164 2.016l.117.144c.23.285.485.555.75.805l.164.152c.282.25.582.485.895.7l.14.097c.31.207.625.399.95.574l.117.063c.351.18.719.34 1.086.492l.25.098c.367.136.75.261 1.144.367l.297.074c.403.106.813.196 1.242.266h.215c.395.066.797.117 1.211.152h.196a23.707 23.707 0 0 1-.895-1.96.896.896 0 0 1 1.246-1.165c.184.094.328.25.41.442.239.566.492 1.113.762 1.636a1.948 1.948 0 0 0 1.871 1.059c1.574-.11 3.137-.34 4.672-.692a.475.475 0 0 0 .355-.414.476.476 0 0 0-.254-.48 42.482 42.482 0 0 1-3.933-2.016A39.007 39.007 0 0 1 1.49 26.913l-.05.117c-.2.43-.38.852-.532 1.274v.09c-.16.43-.293.894-.41 1.289l-.062.214c-.11.41-.196.82-.262 1.227v.215c-.063.406-.102.816-.125 1.226v.09c-.02.387-.02.778 0 1.164-.043.063-.043.11-.035.188zm0 0" style="fill:url(#b);fill-rule:nonzero;stroke:none"/>
  <path d="M22.944 9.39h-.125a42.43 42.43 0 0 0-7.164 3.293A36.991 36.991 0 0 0 2.808 24.507a1.034 1.034 0 0 0 0 1.09 30.602 30.602 0 0 0 4.289 5.375 45.472 45.472 0 0 1-.375-5.918v-1.66a.893.893 0 0 1 .23-.563.898.898 0 0 1 1.543.637v1.601a42.018 42.018 0 0 0 .617 7.239c.07.402.285.765.598 1.027a42.571 42.571 0 0 0 5.965 4.129 37.372 37.372 0 0 0 16.07 5.176 1.965 1.965 0 0 0 1.836-1.09 30.316 30.316 0 0 0 1.79-4.551.44.44 0 0 0-.169-.492.446.446 0 0 0-.52.015 44.905 44.905 0 0 1-3.788 2.493c-.403.23-.813.445-1.227.664a.9.9 0 0 1-.66.07.894.894 0 0 1-.153-1.629c.395-.21.786-.43 1.172-.656a42.348 42.348 0 0 0 6.008-4.2c.278-.23.465-.546.54-.894.405-2.418.6-4.867.59-7.316v-1.946a.892.892 0 0 1 1.405-.742c.192.16.309.395.32.645 0 .66.048 1.324.048 1.996a39.026 39.026 0 0 1-3.833 17.555h.196a26.76 26.76 0 0 0 1.207-.153h.207c.43-.074.844-.172 1.254-.277l.285-.074c.394-.106.777-.23 1.148-.375l.25-.098c.375-.152.743-.313 1.094-.492l.113-.063c.332-.18.653-.37.961-.582l.141-.09c.312-.218.613-.453.898-.707l.16-.152a8.63 8.63 0 0 0 .75-.809l.118-.14c.488-.61.883-1.29 1.164-2.016l.07-.172c.133-.347.238-.703.324-1.066l.043-.203c.078-.36.137-.723.172-1.086v-.153c.02-.386.02-.777 0-1.164v-.09a12.854 12.854 0 0 0-.097-1.28v-.216a12.988 12.988 0 0 0-.262-1.226l-.078-.203a15.704 15.704 0 0 0-.414-1.281v-.11a15.73 15.73 0 0 0-.528-1.262l-.054-.117a30.47 30.47 0 0 1-1.942 2.688.712.712 0 0 1-.762.215.716.716 0 0 1-.484-.63v-.597a.68.68 0 0 1 .152-.477 4.966 4.966 0 0 0-.097-6.16 39.225 39.225 0 0 0-11.094-9.304 70.792 70.792 0 0 0-3.383-1.793 30.38 30.38 0 0 1 2.496-.778c.598.309 1.196.637 1.793.977 1.7.98 3.336 2.07 4.895 3.258a30.687 30.687 0 0 0-2.29-6.016 1.627 1.627 0 0 0-1.523-.898 32.905 32.905 0 0 0-9.008 1.855zm-7.27 8.004 2.946 1.011a.389.389 0 0 1 .145.637l-1.934 1.934a.384.384 0 0 1-.637-.14l-1.03-2.95a.38.38 0 0 1 .093-.414.385.385 0 0 1 .418-.078zm-3.339 8.015a.387.387 0 0 1-.215-.344c0-.144.086-.28.215-.343l2.793-1.371a.382.382 0 0 1 .555.34v2.742c0 .129-.07.254-.184.32a.381.381 0 0 1-.371.02zm6.266 6.324-2.926 1.004a.391.391 0 0 1-.39-.097.383.383 0 0 1-.095-.387l1.012-2.945a.39.39 0 0 1 .277-.25.394.394 0 0 1 .36.105l1.933 1.934a.383.383 0 0 1-.171.636zm5.957 1.047-1.371 2.793a.384.384 0 0 1-.692 0l-1.367-2.793a.382.382 0 0 1 .34-.555h2.738a.382.382 0 0 1 .34.555zm5.468 0-2.945-1.011a.377.377 0 0 1-.246-.278.382.382 0 0 1 .102-.36l1.933-1.933a.394.394 0 0 1 .36-.105.39.39 0 0 1 .277.25l1.004 2.875a.387.387 0 0 1-.512.52zm3.32-8.015a.384.384 0 0 1 0 .691l-2.792 1.367a.38.38 0 0 1-.371-.015.39.39 0 0 1-.184-.325v-2.785a.38.38 0 0 1 .184-.32.381.381 0 0 1 .37-.02zm-6.265-6.325L30 17.394a.39.39 0 0 1 .39.093.392.392 0 0 1 .094.39l-1.011 2.946a.39.39 0 0 1-.278.25.394.394 0 0 1-.359-.105l-1.934-1.934a.389.389 0 0 1 .172-.629zm1.129 6.614a5.373 5.373 0 1 1-10.746-.004 5.373 5.373 0 0 1 10.746.004zm-5.031-10.489 1.367 2.793a.382.382 0 0 1-.34.555h-2.738a.382.382 0 0 1-.34-.555l1.367-2.793c.07-.128.2-.207.344-.207.14 0 .273.079.34.207zm0 0" style="fill:url(#c);fill-rule:nonzero;stroke:none"/>
  <path d="M.104 18.784V19c.067.406.153.813.262 1.227l.063.214c.113.43.25.895.41 1.29v.09c.16.421.34.84.527 1.269l.055.117a34.095 34.095 0 0 1 6.195-6.977 34.137 34.137 0 0 1 2.965-8.722 13.113 13.113 0 0 0-7.8 2.972l-.106.098a9.468 9.468 0 0 0-.79.844l-.097.125a7.619 7.619 0 0 0-1.164 2.023l-.07.172a8.393 8.393 0 0 0-.325 1.067l-.042.203c-.079.36-.137.722-.172 1.086v.14c-.02.39-.02.778 0 1.168v.086c.007.434.039.863.09 1.293zm0 0" style="fill:url(#d);fill-rule:nonzero;stroke:none"/>
  <path d="M14.78 11.089a42.166 42.166 0 0 1 3.922-2.004.516.516 0 0 0 .227-.484.505.505 0 0 0-.336-.414 36.48 36.48 0 0 0-2.211-.418.898.898 0 0 1-.563-1.398.888.888 0 0 1 .848-.36 36.01 36.01 0 0 1 5.66 1.336c.324.101.676.101 1.004 0a33.63 33.63 0 0 1 8.586-1.621l-.055-.075a16.78 16.78 0 0 0-.851-1.117l-.078-.11c-.297-.347-.594-.679-.899-.991l-.168-.172a33.588 33.588 0 0 0-.894-.84l-.172-.137c-.332-.281-.68-.543-1.04-.785h-.062a10.51 10.51 0 0 0-1.02-.629L26.535.8A9.371 9.371 0 0 0 25.48.386l-.207-.063a9.432 9.432 0 0 0-1.082-.25h-.18a7.659 7.659 0 0 0-2.113 0h-.25c-.27 0-.53.09-.796.153h-.145a8.885 8.885 0 0 0-.894.296l-.215.09c-.246.102-.489.211-.735.332l-.187.086c-.293.157-.594.328-.895.512l-.136.09c-.243.168-.489.347-.735.539l-.168.133a14.798 14.798 0 0 0-1.605 1.601l-.125.145a19.001 19.001 0 0 0-1.504 1.98l-.063.09a28.751 28.751 0 0 0-3.582 8.219 46.128 46.128 0 0 1 4.918-3.25zm0 0" style="fill:url(#e);fill-rule:nonzero;stroke:none"/>
  <path d="M38.335 16.452a33.888 33.888 0 0 1 5.848 6.738c.425-.91.773-1.855 1.039-2.824v-.133c.113-.437.203-.867.277-1.289v-.152c.066-.426.11-.852.133-1.281a10.57 10.57 0 0 0 0-1.219v-.117a9.384 9.384 0 0 0-.168-1.137v-.195a9.08 9.08 0 0 0-.324-1.067l-.07-.16a7.62 7.62 0 0 0-1.165-2.015l-.11-.145a7.8 7.8 0 0 0-.76-.805l-.161-.152a9.113 9.113 0 0 0-.895-.707l-.144-.102c-.313-.21-.633-.402-.965-.582l-.125-.097c-.351-.18-.719-.34-1.101-.492L39.4 8.42a15.425 15.425 0 0 0-1.156-.375l-.285-.074a20.94 20.94 0 0 0-1.254-.278H36.5a19.67 19.67 0 0 0-1.234-.16h-.18a33.83 33.83 0 0 1 2.902 8.403c.059.203.18.382.348.515zm0 0" style="fill:url(#f);fill-rule:nonzero;stroke:none"/>
</svg>
